<svg fill="none" xmlns="http://www.w3.org/2000/svg">
    <g clip-path="url(#clip0)">
        <path d="M2.19058 11.5899C3.03094 11.5899 3.71123 10.9099 3.71123 10.0699C3.71123 9.22993 3.03094 8.54993 2.19058 8.54993C1.35022 8.55993 0.669922 9.23993 0.669922 10.0799C0.669922 10.9099 1.35022 11.5899 2.19058 11.5899Z" fill="#657683"></path>
        <path d="M6.03223 0.900635V29.0006H23.8599V0.900635H6.03223ZM9.81386 11.5906C8.9735 11.5906 8.2932 10.9106 8.2932 10.0706C8.2932 9.23063 8.9735 8.55063 9.81386 8.55063C10.6542 8.55063 11.3345 9.23063 11.3345 10.0706C11.3345 10.9106 10.6542 11.5906 9.81386 11.5906ZM17.3671 26.6006C16.5268 26.6006 15.8465 25.9206 15.8465 25.0806C15.8465 24.2406 16.5268 23.5606 17.3671 23.5606C18.2075 23.5606 18.8878 24.2406 18.8878 25.0806C18.8878 25.9206 18.2075 26.6006 17.3671 26.6006ZM17.3671 19.1206C16.5268 19.1206 15.8465 18.4406 15.8465 17.6006C15.8465 16.7606 16.5268 16.0806 17.3671 16.0806C18.2075 16.0806 18.8878 16.7606 18.8878 17.6006C18.8878 18.4406 18.2075 19.1206 17.3671 19.1206ZM17.3671 11.5906C16.5268 11.5906 15.8465 10.9106 15.8465 10.0706C15.8465 9.23063 16.5268 8.55063 17.3671 8.55063C18.2075 8.55063 18.8878 9.23063 18.8878 10.0706C18.8878 10.9106 18.2075 11.5906 17.3671 11.5906Z" fill="#657683"></path>
        <path d="M17.4772 34.1799C18.3176 34.1799 18.9979 33.4999 18.9979 32.6599C18.9979 31.8199 18.3176 31.1399 17.4772 31.1399C16.6368 31.1399 15.9565 31.8199 15.9565 32.6599C15.9665 33.4999 16.6468 34.1799 17.4772 34.1799Z" fill="#657683"></path>
    </g>
</svg>
